# xmcd
#
# Track frame offsets:
#	150
#	15068
#	35626
#	51604
#	61972
#	78475
#	98141
#	118901
#	128659
#	145305
#	157618
#	170653
#
# Disc length: 2486 seconds
#
# Revision: 72
# Processed by: cddbd v1.5.2PL0 Copyright (c) Steve Scherf et al.
# Submitted via: Jack! The Knife 20 Magnifico
#
DISCID=9a09b40c
DTITLE=Cranberries - Everybody Else Is Doing It, So Why Can't We?
DYEAR=1993
DGENRE=Rock
TTITLE0=I Still Do
TTITLE1=Dreams
TTITLE2=Sunday
TTITLE3=Pretty
TTITLE4=Waltzing Back
TTITLE5=Not Sorry
TTITLE6=Linger
TTITLE7=Wanted
TTITLE8=Still Can't...
TTITLE9=I Will Always
TTITLE10=How
TTITLE11=Put Me Down
EXTD=Stephen Street
EXTT0=Hogan, O'Riordan
EXTT1=Hogan, O'Riordan
EXTT2=Hogan, O'Riordan
EXTT3=Hogan, O'Riordan
EXTT4=Dolores O'Riordan
EXTT5=Hogan, O'Riordan
EXTT6=Hogan, O'Riordan
EXTT7=Hogan, O'Riordan
EXTT8=Hogan, O'Riordan
EXTT9=Dolores O'Riordan
EXTT10=Dolores O'Riordan
EXTT11=Hogan, O'Riordan
PLAYORDER=
